# xmcd
#
# Track frame offsets: 
#        150
#        15195
#        27082
#        39312
#        54404
#        68305
#        81030
#        91752
#        103792
#        118485
#        132521
#        144370
#        157124
#        167874
#        179829
#        190298
#
# Disc length: 2713 seconds
#
# Revision: 0
# Processed by: cddbd v1.5.2PL0 Copyright (c) Steve Scherf et al.
# Submitted via: ExactAudioCopy v0.99pb4
#
DISCID=d10a9710
DTITLE=Aretha Franklin - Aretha
DYEAR=2008
DGENRE=Soul
TTITLE0=Won't Be Long
TTITLE1=Over The Rainbow
TTITLE2=Love Is The Only Thing
TTITLE3=Sweet Lover
TTITLE4=All Night Long
TTITLE5=Who Needs You
TTITLE6=Right Now
TTITLE7=Are You Sure?
TTITLE8=Maybe I'm A Fool
TTITLE9=It Ain't Neccessarily So
TTITLE10=(Blue) By Myself
TTITLE11=Today I Sing The Blues
TTITLE12=Rock-A-Bye Your Baby With A Dixie Melody
TTITLE13=It's So Heartbreakin'
TTITLE14=Just For You
TTITLE15=Operation Heartbreak
EXTD=
EXTT0=
EXTT1=
EXTT2=
EXTT3=
EXTT4=
EXTT5=
EXTT6=
EXTT7=
EXTT8=
EXTT9=
EXTT10=
EXTT11=
EXTT12=
EXTT13=
EXTT14=
EXTT15=
PLAYORDER=
